<mxfile host="app.diagrams.net" modified="2023-12-23T19:42:50.802Z" agent="Mozilla/5.0 (Windows NT 10.0; Win64; x64) AppleWebKit/537.36 (KHTML, like Gecko) Chrome/120.0.0.0 Safari/537.36" etag="jVcYj7TwBp7-2nlKUh4A" version="22.1.11" type="github">
  <diagram name="Page-1" id="2cc2dc42-3aac-f2a9-1cec-7a8b7cbee084">
    <mxGraphModel dx="3709" dy="4213" grid="1" gridSize="10" guides="1" tooltips="1" connect="1" arrows="1" fold="1" page="1" pageScale="1" pageWidth="1100" pageHeight="850" background="none" math="0" shadow="0">
      <root>
        <mxCell id="0" />
        <mxCell id="1" parent="0" />
        <mxCell id="ZPV2fgYJPK1eaxz0R0RO-1" value="" style="strokeWidth=1;shadow=0;dashed=0;align=center;html=1;shape=mxgraph.mockup.containers.browserWindow;rSize=0;strokeColor=#666666;strokeColor2=#008cff;strokeColor3=#c4c4c4;mainText=,;recursiveResize=0;" parent="1" vertex="1">
          <mxGeometry x="-1730" y="-2920" width="1290" height="1680" as="geometry" />
        </mxCell>
        <mxCell id="ZPV2fgYJPK1eaxz0R0RO-2" value="Code by Justin" style="strokeWidth=1;shadow=0;dashed=0;align=center;html=1;shape=mxgraph.mockup.containers.anchor;fontSize=14;fontColor=#666666;align=left;whiteSpace=wrap;" parent="ZPV2fgYJPK1eaxz0R0RO-1" vertex="1">
          <mxGeometry x="60" y="20" width="120" height="18" as="geometry" />
        </mxCell>
        <mxCell id="ZPV2fgYJPK1eaxz0R0RO-3" value="https://www.codebyjustin.com" style="strokeWidth=1;shadow=0;dashed=0;align=center;html=1;shape=mxgraph.mockup.containers.anchor;rSize=0;fontSize=17;fontColor=#666666;align=left;" parent="ZPV2fgYJPK1eaxz0R0RO-1" vertex="1">
          <mxGeometry x="130" y="60" width="250" height="26" as="geometry" />
        </mxCell>
        <mxCell id="NuJeFA32ilRppwIgAUFZ-6" value="Splash Screen - Interactive with javascript" style="rounded=1;whiteSpace=wrap;html=1;" vertex="1" parent="ZPV2fgYJPK1eaxz0R0RO-1">
          <mxGeometry x="120" y="130" width="1050" height="240" as="geometry" />
        </mxCell>
        <mxCell id="NuJeFA32ilRppwIgAUFZ-8" value="Nav bar - Stays at the top when scrolling&lt;br&gt;" style="html=1;whiteSpace=wrap;" vertex="1" parent="ZPV2fgYJPK1eaxz0R0RO-1">
          <mxGeometry x="910" y="383.5" width="270" height="37" as="geometry" />
        </mxCell>
        <mxCell id="NuJeFA32ilRppwIgAUFZ-14" value="About Container" style="swimlane;whiteSpace=wrap;html=1;" vertex="1" parent="ZPV2fgYJPK1eaxz0R0RO-1">
          <mxGeometry x="195" y="460" width="900" height="210" as="geometry" />
        </mxCell>
        <mxCell id="NuJeFA32ilRppwIgAUFZ-19" value="&amp;lt;/&amp;gt;" style="rounded=1;arcSize=5;fillColor=#0065FF;strokeColor=none;fontColor=#ffffff;align=center;verticalAlign=middle;whiteSpace=wrap;fontSize=10;fontStyle=1;html=1;sketch=0;" vertex="1" parent="ZPV2fgYJPK1eaxz0R0RO-1">
          <mxGeometry x="130" y="390" width="24" height="24" as="geometry" />
        </mxCell>
      </root>
    </mxGraphModel>
  </diagram>
</mxfile>
